HIERARCHY
ROOT Hips
{
	OFFSET 0.000000 0.000000 0.000000 
	CHANNELS 6 Xposition Yposition Zposition Yrotation Zrotation Xrotation 
	JOINT Lumbar
	{
		OFFSET 0.000000 0.000000 0.000000 
		CHANNELS 3 Zrotation Xrotation Yrotation
		JOINT Neck
		{
			OFFSET 0.000000 0.445665 0.000000 
			CHANNELS 3 Zrotation Xrotation Yrotation
			End Site
			{
				OFFSET 0.000000 0.227535 0.000000 
			}
		}
		JOINT RightShoulder
		{
			OFFSET 0.019635 0.377685 0.194865 
			CHANNELS 3 Zrotation Xrotation Yrotation
			JOINT RightElbow
			{
				OFFSET 0.000000 -0.243375 0.000000 
				CHANNELS 2 Zrotation Yrotation
				JOINT RightWrist
				{
					OFFSET 0.000000 -0.264825 0.000000 
					CHANNELS 2 Zrotation Xrotation
					End Site
					{
						OFFSET 0.006600 -0.176220 0.000990 
					}
				}
			}
		}
		JOINT LeftShoulder
		{
			OFFSET 0.019635 0.377685 -0.194865 
			CHANNELS 3 Zrotation Xrotation Yrotation
			JOINT LeftElbow
			{
				OFFSET 0.000000 -0.243375 0.000000 
				CHANNELS 2 Zrotation Yrotation
				JOINT LeftWrist
				{
					OFFSET 0.000000 -0.264825 0.000000 
					CHANNELS 2 Zrotation Xrotation
					End Site
					{
						OFFSET 0.006600 -0.176220 -0.000990 
					}
				}
			}
		}
	}
	JOINT RightHip
	{
		OFFSET 0.052140 -0.069960 0.075570 
		CHANNELS 3 Zrotation Xrotation Yrotation
		JOINT RightKnee
		{
			OFFSET 0.000000 -0.402270 0.000000 
			CHANNELS 1 Zrotation
			JOINT RightAnkle
			{
				OFFSET 0.000000 -0.404085 0.000000 
				CHANNELS 3 Zrotation Xrotation Yrotation
				End Site
				{
					OFFSET 0.204105 -0.089430 0.008415 
				}
			}
		}
	}
	JOINT LeftHip
	{
		OFFSET 0.052140 -0.069960 -0.075570 
		CHANNELS 3 Zrotation Xrotation Yrotation
		JOINT LeftKnee
		{
			OFFSET 0.000000 -0.402270 0.000000 
			CHANNELS 1 Zrotation
			JOINT LeftAnkle
			{
				OFFSET 0.000000 -0.404085 0.000000 
				CHANNELS 3 Zrotation Xrotation Yrotation
				End Site
				{
					OFFSET 0.204105 -0.089430 -0.008415 
				}
			}
		}
	}
}
MOTION
Frames: 11
Frame Time: 0.02
-0.69904 0.94316 -0.03811 545.69088 0 -10.43581 3.88436 5.02754 -8.49991 -2.66185 -11.10167 -8.52354 3.12222 -35.7771 -43.90275 23.36268 81.65571 1.05082 -11.8333 -5.81589 16.44572 -52.73918 84.73986 -113.70701 25.59626 -2.33449 12.05619 12.63339 6.41002 -16.07415 -2.41156 -1.13514 1.69386 0.81292 5.81031 -16.56654 -55.38239 6.10834 4.57827 6.92604
-0.70976 0.94475 -0.04073 546.62757 0 -10.37673 3.63183 5.16842 -8.6071 -1.48796 -10.4401 -8.39995 2.19454 -36.76896 -43.81885 23.58042 81.64169 0.88618 -11.77642 -6.88634 15.63236 -52.74625 84.34321 -113.30457 25.51239 -2.27311 10.93875 12.61549 6.2102 -15.3305 -2.06298 -1.21988 1.32945 3.27081 5.56327 -15.7349 -58.58596 5.86582 4.47772 8.16922
-0.71948 0.94611 -0.04286 547.49772 0 -10.17296 3.30082 5.18542 -8.57313 -0.0594 -9.61511 -8.24019 1.02756 -38.01671 -43.71889 23.8775 81.5884 0.65974 -11.697 -8.20108 14.5769 -52.75118 83.74611 -112.72946 25.50727 -2.16696 9.87727 12.5455 6.5306 -14.59846 -1.72507 -1.38482 0.58612 5.75768 5.13462 -14.73645 -61.16918 6.13808 4.97168 10.09578
-0.72963 0.94757 -0.04518 548.39061 0 -10.03268 3.00661 5.25496 -8.6006 1.23927 -8.84543 -8.10271 -0.02238 -39.16344 -43.61312 24.16142 81.56973 0.45886 -11.60894 -9.38649 13.60728 -52.75683 83.22774 -112.21193 25.4565 -2.07832 8.79209 12.49569 6.60451 -13.85992 -1.3843 -1.51322 0.02027 8.20785 4.78704 -13.81258 -63.93157 6.17285 5.16865 11.66086
-0.73983 0.94907 -0.04762 549.31904 0 -9.90069 2.70535 5.33982 -8.64314 2.60316 -8.15491 -7.9394 -1.11084 -40.24853 -43.56168 24.35036 81.48405 0.26693 -11.60144 -10.65382 12.73746 -52.76364 82.76293 -111.78273 25.44551 -2.00198 7.68906 12.45485 6.71416 -13.10516 -1.03138 -1.64136 -0.56544 10.77637 4.44395 -12.88433 -67.1529 6.20927 5.46105 13.43206
-0.74969 0.95041 -0.04969 550.15696 0 -9.71811 2.40096 5.36386 -8.61968 3.88662 -7.26201 -7.8217 -2.17206 -41.52081 -43.39535 24.75445 81.52382 0.04363 -11.42106 -11.80379 11.60452 -52.76756 82.13908 -111.1311 25.37275 -1.88962 6.64117 12.38564 6.87299 -12.39633 -0.70706 -1.7891 -1.19933 13.09492 4.05016 -11.92873 -69.25285 6.36749 5.70389 14.93855
-0.75887 0.95145 -0.05091 550.75112 0 -9.42458 2.10776 5.24647 -8.44455 4.92169 -5.8383 -7.83929 -3.12959 -43.25802 -42.89445 25.74375 81.96143 -0.2673 -10.76162 -12.60611 9.78796 -52.7634 81.11735 -109.87471 25.08944 -1.6842 5.72452 12.24531 7.07363 -11.79759 -0.46753 -1.97464 -1.89245 14.75238 3.54629 -10.94511 -68.51051 6.76298 5.65001 15.55924
-0.76775 0.95232 -0.05175 551.25774 0 -9.08655 1.81443 5.07283 -8.20794 5.85968 -4.21905 -7.90406 -4.0454 -45.17222 -42.28221 26.94431 82.51923 -0.60477 -9.93035 -13.2747 7.71866 -52.75657 79.94389 -108.40597 24.74511 -1.44482 4.86427 12.08023 7.30217 -11.25043 -0.25538 -2.17687 -2.61926 16.14758 3.00016 -9.94002 -66.63916 7.2608 5.53084 15.88856
-0.77677 0.95324 -0.05274 551.81028 0 -8.77325 1.52093 4.92754 -8.00167 6.81863 -2.69672 -7.94716 -4.96095 -46.99861 -41.73487 28.04181 82.99411 -0.91932 -9.18193 -13.98095 5.77518 -52.75127 78.84436 -107.05563 24.44229 -1.22389 3.98435 11.93055 7.49602 -10.69126 -0.02597 -2.36912 -3.31724 17.63778 2.48332 -8.94175 -65.21601 7.69596 5.45326 16.3452
-0.78574 0.95429 -0.05384 552.33441 0 -8.4355 1.22518 4.76639 -7.78088 7.88559 -1.13342 -7.99015 -5.96746 -48.8665 -41.12705 29.17387 83.58553 -1.2813 -8.41163 -14.79444 3.77474 -52.74432 77.71582 -105.60734 24.08407 -0.9887 3.08081 11.76045 7.79594 -10.08262 0.18233 -2.57335 -4.08036 19.23432 1.91869 -7.94958 -64.0477 8.21574 5.34551 16.84903
-0.79474 0.95502 -0.0546 552.89812 0 -8.14044 0.93565 4.62625 -7.577 8.69954 0.38725 -8.04477 -6.76968 -50.68486 -40.61844 30.28056 83.9652 -1.55068 -7.64766 -15.34824 1.83888 -52.74051 76.61561 -104.3143 23.8257 -0.77567 2.23946 11.62893 7.88085 -9.59073 0.42884 -2.7567 -4.71726 20.54299 1.44451 -6.94219 -62.08566 8.57852 5.27777 17.17401
